# xmcd CD database file
#
# Track frame offsets:
#	150
#	29125
#	57504
#	94309
#	137184
#	173092
#	213002
#	248103
#	278717
#
# Disc length: 4172 seconds
#
# Revision: 0
# Processed by: cddbd v1.5.1PL2 Copyright (c) Steve Scherf et al.
# Submitted via: CDex 1.51
#
DISCID=84104a09
DTITLE=Various Artist - CISCO HOUSE presents CIMPACT VINYL 2
DYEAR=2006
DGENRE=House
TTITLE0=CLASHING EGOS - AMINJIG NEBERE (I TRUSTED YOU) (JOAKIM'S AFROBOT MIX)
TTITLE1=LAZYBOY - POLICE DOGS BONFIRE (REVERSO 68 MIX)
TTITLE2=REKID - DIAMOND BLACK
TTITLE3=NATHAN FAKE - THE SKY WAS PINK (HOLDEN REMIX)
TTITLE4=THRRE THAEMLITZ and ZEITKRATZER Performing K-S.HE (KAMI-SAKUNOBE HOUSE EXPLOSION) - DOWN HOME KAMI-SAKUNOBE
TTITLE5=VAALERENGA BLUES AND DISKO COMBO - RYMDPOLISEN
TTITLE6=GLEN LEWIS FEATURING MJOJO AND BONGANI - LIFE EVERLASTING (DENNIS FERRER'S PASSION OF C VOCAL MIX)
TTITLE7=BENT - BABY OF THE YEAR
TTITLE8=SEBASTIEN TELLIER - LA RITOURNELLE
EXTD=YEAR: 2006
EXTT0=
EXTT1=
EXTT2=
EXTT3=
EXTT4=
EXTT5=
EXTT6=
EXTT7=
EXTT8=
PLAYORDER=
